<svg width="84" height="84" viewBox="0 0 84 84" fill="none" xmlns="http://www.w3.org/2000/svg">
<path d="M42 84C65.1984 84 84 65.1984 84 42C84 18.8016 65.1984 0 42 0C18.8016 0 0 18.8016 0 42C0 65.1984 18.8016 84 42 84ZM50.318 53.3367L26.6437 62.4422C23.4609 63.6727 20.3273 60.5391 21.5578 57.3563L30.6633 33.682C31.2047 32.2875 32.2875 31.2047 33.682 30.6633L57.3563 21.5578C60.5391 20.3273 63.6727 23.4609 62.4422 26.6437L53.3367 50.318C52.8117 51.7125 51.7125 52.7953 50.318 53.3367ZM47.25 42C47.25 39.0961 44.9039 36.75 42 36.75C39.0961 36.75 36.75 39.0961 36.75 42C36.75 44.9039 39.0961 47.25 42 47.25C44.9039 47.25 47.25 44.9039 47.25 42Z" fill="#CF334F"/>
</svg>
