<svg width="84" height="84" viewBox="0 0 84 84" fill="none" xmlns="http://www.w3.org/2000/svg">
<path d="M8.4 28.7143C8.4 18.9299 15.9206 11 25.2 11H58.8C68.0794 11 75.6 18.9299 75.6 28.7143V33.3643C70.8094 34.3884 67.2 38.8585 67.2 44.2143V50.8571H16.8V44.2143C16.8 38.8585 13.1906 34.3884 8.4 33.3643V28.7143ZM71.4 44.2143C71.4 41.3219 73.1587 38.8585 75.6 37.9451C76.2562 37.696 76.965 37.5714 77.7 37.5714C81.1781 37.5714 84 40.5469 84 44.2143V68.5714C84 71.021 82.1231 73 79.8 73H75.6C73.2769 73 71.4 71.021 71.4 68.5714H12.6C12.6 71.021 10.7231 73 8.4 73H4.2C1.87687 73 0 71.021 0 68.5714V44.2143C0 40.5469 2.82187 37.5714 6.3 37.5714C7.035 37.5714 7.74375 37.7098 8.4 37.9451C10.8412 38.8585 12.6 41.3219 12.6 44.2143V55.2857H71.4V44.2143Z" fill="#CF334F"/>
</svg>
