<svg width="84" height="84" viewBox="0 0 84 84" fill="none" xmlns="http://www.w3.org/2000/svg">
<path d="M52.5 15.75H31.5L23.7234 4.08516C22.5586 2.32969 23.8055 0 25.9055 0H58.0945C60.1945 0 61.4414 2.32969 60.2766 4.08516L52.5 15.75ZM31.5 21H52.5C53.1234 21.4102 53.8289 21.8695 54.6328 22.3781C63.9352 28.3336 84 41.1633 84 68.25C84 76.9453 76.9453 84 68.25 84H15.75C7.05469 84 0 76.9453 0 68.25C0 41.1633 20.0648 28.3336 29.3672 22.3781C30.1547 21.8695 30.8766 21.4102 31.5 21ZM45.2977 36.75C45.2977 34.9289 43.8211 33.4523 42 33.4523C40.1789 33.4523 38.7023 34.9289 38.7023 36.75V37.7344C37.7836 37.9313 36.9141 38.2102 36.0938 38.5711C33.6328 39.6867 31.5164 41.7539 30.9914 44.7562C30.6961 46.4297 30.8602 48.0375 31.5492 49.5141C32.2383 50.9578 33.3047 51.975 34.3875 52.7133C36.2906 54.0094 38.8008 54.7641 40.7203 55.3383L41.0812 55.4531C43.3617 56.1422 44.9203 56.6672 45.8883 57.3727C46.2984 57.668 46.4461 57.8977 46.5117 58.0453C46.5609 58.1766 46.6594 58.4719 46.5445 59.1445C46.4461 59.7188 46.1344 60.1945 45.232 60.5883C44.2313 61.0148 42.607 61.2281 40.507 60.9C39.5227 60.7359 37.7672 60.1453 36.2086 59.6039C35.8477 59.4727 35.5031 59.3578 35.175 59.2594C33.4523 58.6852 31.5984 59.6203 31.0242 61.343C30.45 63.0656 31.3852 64.9195 33.1078 65.4938C33.3047 65.5594 33.5508 65.6414 33.8297 65.7398C35.1258 66.1828 37.1602 66.8719 38.7188 67.2328V68.25C38.7188 70.0711 40.1953 71.5477 42.0164 71.5477C43.8375 71.5477 45.3141 70.0711 45.3141 68.25V67.3477C46.2 67.1836 47.0367 66.9375 47.8406 66.593C50.4164 65.4937 52.5 63.3609 53.025 60.2438C53.3203 58.5375 53.1891 56.9133 52.5328 55.4203C51.893 53.9437 50.8594 52.8609 49.7602 52.057C47.7586 50.6133 45.1172 49.8094 43.132 49.2023L43.0008 49.1695C40.6711 48.4641 39.0961 47.9719 38.0953 47.2992C37.6687 47.0039 37.5375 46.807 37.5047 46.725C37.4719 46.6758 37.3898 46.4625 37.4883 45.9047C37.5375 45.593 37.8 45.0516 38.8336 44.5758C39.8836 44.1 41.5242 43.8375 43.5258 44.1492C44.2312 44.2641 46.4625 44.6906 47.0859 44.8547C48.8414 45.3141 50.6297 44.2805 51.1055 42.525C51.5813 40.7695 50.5312 38.9812 48.7758 38.5055C48.0539 38.3086 46.4133 37.9805 45.3305 37.7836V36.75H45.2977Z" fill="#CF334F"/>
</svg>
