<svg width="434" height="274" viewBox="0 0 434 274" fill="none" xmlns="http://www.w3.org/2000/svg">
<circle cx="217" cy="107" r="104.5" stroke="#C90F3A" stroke-width="5"/>
<path d="M292 110.5C292 150.467 258.273 183 216.5 183C174.727 183 141 150.467 141 110.5C141 70.533 174.727 38 216.5 38C258.273 38 292 70.533 292 110.5Z" stroke="#C90F3A" stroke-width="4"/>
<path d="M259.5 110.5C259.5 133.079 240.314 151.5 216.5 151.5C192.686 151.5 173.5 133.079 173.5 110.5C173.5 87.9206 192.686 69.5 216.5 69.5C240.314 69.5 259.5 87.9206 259.5 110.5Z" stroke="#C90F3A" stroke-width="3"/>
<circle cx="404" cy="54" r="28" stroke="#C90F3A" stroke-width="4"/>
<circle cx="329" cy="257" r="16" stroke="#C90F3A" stroke-width="2"/>
<circle cx="30" cy="201" r="28" stroke="#C90F3A" stroke-width="4"/>
<circle cx="30" cy="201" r="11.7273" stroke="#C90F3A" stroke-width="2"/>
</svg>
