<svg width="84" height="84" viewBox="0 0 84 84" fill="none" xmlns="http://www.w3.org/2000/svg">
<path d="M56.0909 63C57.7818 57.7664 61.2869 53.3039 64.7568 48.8578C65.6727 47.693 66.5886 46.5281 67.4693 45.3469C70.9568 40.6711 73 35.0109 73 28.8914C73 12.9281 59.1205 0 42 0C24.8795 0 11 12.9281 11 28.875C11 34.9945 13.0432 40.6711 16.5307 45.3305C17.4114 46.5117 18.3273 47.6766 19.2432 48.8414C22.7307 53.2875 26.2358 57.7664 27.9091 62.9836H56.0909V63ZM42 84C49.7852 84 56.0909 78.1266 56.0909 70.875V68.25H27.9091V70.875C27.9091 78.1266 34.2148 84 42 84ZM27.9091 28.875C27.9091 30.3188 26.6409 31.5 25.0909 31.5C23.5409 31.5 22.2727 30.3188 22.2727 28.875C22.2727 18.7195 31.0972 10.5 42 10.5C43.55 10.5 44.8182 11.6812 44.8182 13.125C44.8182 14.5688 43.55 15.75 42 15.75C34.2148 15.75 27.9091 21.6234 27.9091 28.875Z" fill="#CF334F"/>
</svg>
