<svg width="84" height="84" viewBox="0 0 84 84" fill="none" xmlns="http://www.w3.org/2000/svg">
<path d="M42 84C18.8016 84 0 65.1984 0 42C0 18.8016 18.8016 0 42 0C65.1984 0 84 18.8016 84 42C84 65.1984 65.1984 84 42 84ZM38.0625 19.6875V42C38.0625 43.3125 38.7187 44.543 39.818 45.2812L55.568 55.7812C57.3727 56.9953 59.8172 56.5031 61.0312 54.682C62.2453 52.8609 61.7531 50.4328 59.932 49.2188L45.9375 39.9V19.6875C45.9375 17.5055 44.182 15.75 42 15.75C39.818 15.75 38.0625 17.5055 38.0625 19.6875Z" fill="#CF334F"/>
</svg>
